# AST/ASF file generated using VICON BodyLanguage
# -----------------------------------------------
:version 1.10
:name VICON
:units
  mass 1.0
  length 0.45
  angle deg
:documentation
   .ast/.asf automatically generated from VICON data using
   VICON BodyBuilder and BodyLanguage model FoxedUp or BRILLIANT.MOD
:root
   order TX TY TZ RX RY RZ
   axis XYZ
   position 0 0 0  
   orientation 0 0 0 
:bonedata
  begin
     id 1 
     name lhipjoint
     direction 0.521452 -0.77106 0.36545 
     length 2.0933 
     axis 0 0 0  XYZ
  end
  begin
     id 2 
     name lfemur
     direction 0.34202 -0.939693 0  
     length 6.83441  
     axis 0 0 20  XYZ
    dof rx ry rz
    limits (-160.0 20.0)
           (-70.0 70.0)
           (-60.0 70.0)
  end
  begin
     id 3 
     name ltibia
     direction 0.34202 -0.939693 0   
     length 7.28749   
     axis 0 0 20   XYZ
    dof rx
    limits (-10.0 170.0)
  end
  begin
     id 4 
     name lfoot
     direction 0.100608 -0.276418 0.955757   
     length 1.52195   
     axis -90 7.62852e-016 20   XYZ
    dof rx rz
    limits (-45.0 90.0)
           (-70.0 20.0)
  end
  begin
     id 5 
     name ltoes
     direction 1.53558e-011 -4.21907e-011 1   
     length 0.770459   
     axis -90 7.62852e-016 20   XYZ
    dof rx
    limits (-90.0 20.0)
  end
  begin
     id 6 
     name rhipjoint
     direction -0.488071 -0.788702 0.373812   
     length 2.04648  
     axis 0 0 0  XYZ 
  end
  begin
     id 7 
     name rfemur
     direction -0.34202 -0.939693 0   
     length 6.92583   
     axis 0 0 -20   XYZ
    dof rx ry rz
    limits (-160.0 20.0)
           (-70.0 70.0)
           (-70.0 60.0)
  end
  begin
     id 8 
     name rtibia
     direction -0.34202 -0.939693 0   
     length 7.41043   
     axis 0 0 -20   XYZ
    dof rx
    limits (-10.0 170.0)
 end
 begin
     id 9 
     name rfoot
     direction -0.0784433 -0.215521 0.973343   
     length 1.67708  
     axis -90 -7.62852e-016 -20   XYZ
    dof rx rz
    limits (-45.0 90.0)
           (-20.0 70.0)
  end
  begin
     id 10 
     name rtoes
     direction -1.53551e-011 -4.21842e-011 1   
     length 0.849787   
     axis -90 -7.62852e-016 -20   XYZ
    dof rx
    limits (-90.0 20.0)
  end
  begin
     id 11 
     name lowerback
     direction -0.0122332 0.997575 -0.0685192   
     length 1.98724   
     axis 0 0 0   XYZ
    dof rx ry rz
    limits (-20.0 45.0)
           (-30.0 30.0)
           (-30.0 30.0)
  end
  begin
     id 12 
     name upperback
     direction 0.0182347 0.999724 -0.0148421   
     length 1.99029   
     axis 0 0 0   XYZ
    dof rx ry rz
    limits (-20.0 45.0)
           (-30.0 30.0)
           (-30.0 30.0)
  end
  begin
     id 13 
     name thorax
     direction 0.0242908 0.99956 0.0170184   
     length 1.99573   
     axis 0 0 0   XYZ
    dof rx ry rz
    limits (-20.0 45.0)
           (-30.0 30.0)
           (-30.0 30.0)
  end
  begin
     id 14 
     name lowerneck
     direction 0.0654488 0.985533 0.156338   
     length 1.4285   
     axis 0 0 0   XYZ
    dof rx ry rz
    limits (-20.0 45.0)
           (-30.0 30.0)
           (-30.0 30.0)
  end
  begin
     id 15 
     name upperneck
     direction -0.02953 0.998556 -0.0448842   
     length 1.44709   
     axis 0 0 0   XYZ
    dof rx ry rz
    limits (-20.0 45.0)
           (-30.0 30.0)
           (-30.0 30.0)
  end
  begin
     id 16
     name head
     direction -0.0155588 0.999386 -0.0314063  
     length 1.44689  
     axis 0 0 0   XYZ
    dof rx ry rz
    limits (-20.0 45.0)
           (-30.0 30.0)
           (-30.0 30.0)
  end
  begin
     id 17 
     name lclavicle
     direction 0.968229 0.236071 -0.0824755  
     length 3.60593  
     axis 0 0 0   XYZ
    dof ry rz
    limits (-20.0 10.0)
           (0.0 20.0)
  end
  begin
     id 18 
     name lhumerus
     direction 1 -4.48968e-011 7.8138e-029   
     length 5.06035   
     axis 180 -30 -90   XYZ
    dof rx ry rz
    limits (-60.0 90.0)
           (-90.0 90.0)
           (-90.0 90.0)
  end
  begin
     id 19
     name lradius
     direction 1 -4.48967e-011 9.02887e-028   
     length 3.1478   
     axis 180 -30 -90   XYZ
    dof rx
    limits (-10.0 170.0)
  end
  begin
     id 20
     name lwrist
     direction 1 -4.48961e-011 7.20928e-028   
     length 1.5739   
     axis -5.52449e-016 90 90   XYZ
    dof ry
    limits (-180.0 0.0)
 end
  begin
     id 21 
     name lhand
     direction 1 -4.48972e-011 1.44186e-027   
     length 0.606747   
     axis -9.20027e-016 90 90   XYZ
    dof rx rz
    limits (-90.0 90.0)
           (-45.0 45.0)
  end
  begin
     id 22 
     name lfingers
     direction 1 -4.48943e-011 2.88371e-027   
     length 0.489175   
     axis -1.84005e-015 90 90   XYZ
    dof rx
    limits (0.0 90.0)
  end
  begin
     id 23
     name lthumb
     direction 0.707107 -6.34917e-011 0.707107   
     length 0.70236   
     axis -90 45 2.85299e-015   XYZ
    dof rx rz
    limits (-45.0 45.0)
           (-45.0 45.0)
  end
  begin
     id 24 
     name rclavicle
     direction -0.978165 0.207816 0.0022268   
     length 3.35425  
     axis 0 0 0   XYZ 
    dof ry rz
    limits (-10.0 20.0)
           (-20.0 0.0)
  end
  begin
     id 25 
     name rhumerus
     direction -1 -4.48964e-011 -4.02159e-027  
     length 5.12273   
     axis 180 30 90   XYZ
    dof rx ry rz
    limits (-90.0 60.0)
           (-90.0 90.0)
           (-90.0 90.0)
  end
  begin
     id 26 
     name rradius
     direction -1 -4.48966e-011 1.62746e-027   
     length 3.422   
     axis 180 30 90   XYZ
    dof rx
    limits (-10.0 170.0)
  end
  begin
     id 27 
     name rwrist
     direction -1 -4.4896e-011 7.20928e-028   
     length 1.711   
     axis -5.52449e-016 -90 -90   XYZ
    dof ry
    limits (-180.0 0.0)
  end
  begin
     id 28
     name rhand
     direction -1 -4.48979e-011 1.44186e-027   
     length 0.704599   
     axis -9.20027e-016 -90 -90   XYZ
    dof rx rz
    limits (-90.0 90.0)
           (-45.0 45.0)
  end
  begin
     id 29
     name rfingers
     direction -1 -4.48962e-011 2.88371e-027   
     length 0.568066   
     axis -1.84005e-015 -90 -90   XYZ
    dof rx
    limits (0.0 90.0)
  end
  begin
     id 30
     name rthumb
     direction -0.707107 -6.34949e-011 0.707107   
     length 0.815633   
     axis -90 -45 -2.85299e-015   XYZ
    dof rx rz
    limits (-45.0 45.0)
           (-45.0 45.0)
  end
:hierarchy
  begin
    root lhipjoint rhipjoint lowerback
    lhipjoint lfemur
    lfemur ltibia
    ltibia lfoot
    lfoot ltoes
    rhipjoint rfemur
    rfemur rtibia
    rtibia rfoot
    rfoot rtoes
    lowerback upperback
    upperback thorax
    thorax lowerneck lclavicle rclavicle
    lowerneck upperneck
    upperneck head
    lclavicle lhumerus
    lhumerus lradius
    lradius lwrist
    lwrist lhand lthumb
    lhand lfingers
    rclavicle rhumerus
    rhumerus rradius
    rradius rwrist
    rwrist rhand rthumb
    rhand rfingers
  end

#!OML:ASF E:\id_vita\Project 1\Capture day 1\Session 1\Male1.ASF
:FULLY-SPECIFIED
:DEGREES
416
root 3.40449 27.1821 0.647448 -174.772 84.5811 -190.558
lowerback 11.0265 -1.45674 -7.35997
upperback 7.34784 -2.17296 -0.00903362
thorax 1.84752 -1.19872 4.32132
lowerneck -5.03836 1.24987 4.74976
upperneck -2.46927 1.5865 4.20774
head 0.0674615 0.835009 0.528925
rclavicle 2.82274e-014 1.51076e-014
rhumerus 35.5121 15.8975 -72.5432
rradius 117.549
rwrist -3.59848
rhand -31.6464 57.7828
rfingers 7.12502
rthumb -4.90726 27.8596
lclavicle 2.82274e-014 1.51076e-014
lhumerus 42.6244 -11.5008 64.1463
lradius 112.271
lwrist 9.01965
lhand -28.8773 39.8023
lfingers 7.12502
lthumb -2.23322 69.7703
rfemur -33.1259 -2.25394 18.6142
rtibia 30.0635
rfoot -10.398 -7.88938
rtoes -9.37674
lfemur -29.5978 -1.63335 -17.1576
ltibia 31.8947
lfoot -20.7129 -0.118327
ltoes 25.9815
417
root 3.40543 27.175 0.651082 -176.05 84.8324 -192.146
lowerback 10.9395 -1.32758 -7.37781
upperback 7.22643 -2.01114 -0.170907
thorax 1.73792 -1.11072 4.14788
lowerneck -4.8067 1.1441 5.12315
upperneck -2.52724 1.44436 4.0787
head 0.0146465 0.755517 0.425768
rclavicle 1.19271e-015 6.36111e-015
rhumerus 35.4514 15.6339 -72.9136
rradius 117.818
rwrist -4.05733
rhand -31.6722 57.6733
rfingers 7.12502
rthumb -4.93218 27.7507
lclavicle 1.19271e-015 6.36111e-015
lhumerus 43.3726 -11.7924 63.8379
lradius 112.649
lwrist 8.4316
lhand -29.0145 39.9026
lfingers 7.12502
lthumb -2.36569 69.8692
rfemur -33.672 -2.40619 18.5884
rtibia 30.2767
rfoot -10.3992 -7.53061
rtoes -9.85406
lfemur -29.8846 -1.84673 -17.2186
ltibia 31.8771
lfoot -20.7217 0.439348
ltoes 25.2883
418
root 3.41291 27.1728 0.658044 -178.011 84.7733 -194.27
lowerback 11.0735 -1.37005 -7.473
upperback 7.23999 -2.08041 -0.260631
thorax 1.69013 -1.14289 4.11684
lowerneck -4.66853 1.34708 4.81269
upperneck -2.89859 1.76882 4.25184
head -0.123306 0.91053 0.529696
rclavicle 1.15295e-014 -1.59028e-014
rhumerus 35.641 15.3383 -73.3346
rradius 118.053
rwrist -5.06157
rhand -31.7462 57.6546
rfingers 7.12502
rthumb -5.00369 27.7336
lclavicle 1.15295e-014 -1.59028e-014
lhumerus 44.2078 -11.705 63.5381
lradius 112.89
lwrist 7.66108
lhand -29.0881 39.8255
lfingers 7.12502
lthumb -2.43682 69.7913
rfemur -33.9483 -2.68985 18.488
rtibia 30.4675
rfoot -10.5245 -7.36772
rtoes -10.1233
lfemur -30.0078 -2.06898 -17.3573
ltibia 31.871
lfoot -20.7741 0.620819
ltoes 25.287
419
root 3.43102 27.1786 0.674823 -177.941 84.3074 -194.081
lowerback 11.5304 -1.52447 -7.4477
upperback 7.25442 -2.30846 -0.286798
thorax 1.48468 -1.24368 4.10999
lowerneck -4.53154 1.3834 4.64772
upperneck -3.3184 1.86988 4.48972
head -0.276257 0.951883 0.62676
rclavicle 1.94809e-014 2.54444e-014
rhumerus 35.9144 15.152 -73.7099
rradius 118.26
rwrist -5.42997
rhand -31.7564 57.3923
rfingers 7.12502
rthumb -5.01355 27.4716
lclavicle 1.94809e-014 2.54444e-014
lhumerus 44.8088 -11.6944 63.1399
lradius 112.983
lwrist 6.90517
lhand -29.6074 39.577
lfingers 7.12502
lthumb -2.93827 69.5365
rfemur -33.7676 -2.95764 18.5269
rtibia 30.6439
rfoot -10.6968 -7.58761
rtoes -9.93817
lfemur -29.8748 -2.06294 -17.3637
ltibia 31.9093
lfoot -20.7524 0.0635926
ltoes 26.0382
420
root 3.43495 27.1785 0.685861 -176.237 84.5094 -192.686
lowerback 11.7258 -1.48806 -7.20127
upperback 6.97959 -2.28407 -0.392402
thorax 1.06319 -1.20556 3.87216
lowerneck -4.3192 1.31851 4.74797
upperneck -3.81556 1.83638 4.67185
head -0.462933 0.919496 0.662469
rclavicle 2.22639e-014 -2.94201e-014
rhumerus 35.9713 15.2514 -74.0003
rradius 118.532
rwrist -4.64574
rhand -31.7131 57.1512
rfingers 7.12502
rthumb -4.97172 27.2296
lclavicle 2.22639e-014 -2.94201e-014
lhumerus 45.0734 -11.8216 62.7426
lradius 113.348
lwrist 6.43485
lhand -29.6903 39.7572
lfingers 7.12502
lthumb -3.0184 69.7156
rfemur -34.2485 -2.88788 18.7744
rtibia 30.8088
rfoot -10.6702 -7.42845
rtoes -10.0085
lfemur -30.2172 -1.96727 -17.1329
ltibia 31.9277
lfoot -20.6838 0.139811
ltoes 26.2826
421
root 3.44521 27.1763 0.697326 -176.389 84.5124 -192.915
lowerback 11.5929 -1.5085 -7.33268
upperback 7.20587 -2.28716 -0.367541
thorax 1.38552 -1.22345 3.96236
lowerneck -4.7545 1.30244 4.83015
upperneck -3.77346 1.78094 4.60705
head -0.378804 0.899941 0.632387
rclavicle -4.09496e-014 -1.35174e-014
rhumerus 36.6171 15.2243 -73.8791
rradius 118.776
rwrist -3.98617
rhand -31.6819 57.0789
rfingers 7.12502
rthumb -4.9416 27.1566
lclavicle -4.09496e-014 -1.35174e-014
lhumerus 45.8834 -11.6369 62.5495
lradius 113.694
lwrist 5.83061
lhand -29.5975 40.0274
lfingers 7.12502
lthumb -2.92877 69.987
rfemur -34.3809 -2.86248 18.7859
rtibia 30.963
rfoot -10.6751 -7.46196
rtoes -9.98095
lfemur -30.3126 -1.71068 -17.1842
ltibia 31.9531
lfoot -20.7161 -0.0650692
ltoes 25.8165
422
root 3.45764 27.1735 0.708197 -178.482 84.4168 -195.057
lowerback 11.5139 -1.509 -7.67199
upperback 7.3996 -2.28749 -0.369515
thorax 1.65598 -1.24418 4.14307
lowerneck -4.76109 1.28512 5.0426
upperneck -3.95181 1.75635 4.42686
head -0.428847 0.880267 0.542646
rclavicle -3.49861e-014 5.56597e-015
rhumerus 37.0503 14.9739 -73.9226
rradius 118.934
rwrist -4.20015
rhand -31.6975 57.0239
rfingers 7.12502
rthumb -4.95663 27.1018
lclavicle -3.49861e-014 5.56597e-015
lhumerus 46.752 -11.593 62.4277
lradius 113.761
lwrist 5.17371
lhand -30.108 39.9137
lfingers 7.12502
lthumb -3.42173 69.866
rfemur -34.4552 -2.89415 18.583
rtibia 31.1304
rfoot -10.7596 -7.58303
rtoes -10.0382
lfemur -30.3729 -1.65118 -17.422
ltibia 32.0503
lfoot -20.8243 -0.139817
ltoes 25.0659
423
root 3.4654 27.1699 0.716756 -178.725 84.4096 -195.436
lowerback 11.4022 -1.46916 -7.74674
upperback 7.51639 -2.21868 -0.375988
thorax 1.8368 -1.21932 4.16579
lowerneck -4.63658 1.38407 5.10741
upperneck -4.20298 1.90623 4.23176
head -0.522576 0.945741 0.472717
rclavicle -2.26615e-014 0
rhumerus 37.4308 14.6797 -74.026
rradius 119.004
rwrist -4.39151
rhand -31.6988 56.8926
rfingers 7.12502
rthumb -4.95791 26.9706
lclavicle -2.26615e-014 0
lhumerus 47.5844 -11.6155 62.2547
lradius 113.884
lwrist 4.78316
lhand -30.6898 39.6913
lfingers 7.12502
lthumb -3.98354 69.6338
rfemur -34.6802 -2.9249 18.5994
rtibia 31.3327
rfoot -10.7879 -7.63278
rtoes -10.6623
lfemur -30.5261 -1.72388 -17.4075
ltibia 32.1335
lfoot -20.8642 -0.1083
ltoes 25.0463
424
root 3.46905 27.1664 0.719144 -178.121 84.4962 -195.039
lowerback 11.6745 -1.523 -7.46889
upperback 7.3635 -2.30166 -0.535872
thorax 1.51189 -1.23308 3.86279
lowerneck -4.82326 1.26426 5.16709
upperneck -4.55062 1.77185 4.52308
head -0.601994 0.874129 0.550967
rclavicle -3.85642e-014 6.36111e-015
rhumerus 37.4673 14.7355 -74.4431
rradius 119.176
rwrist -4.27512
rhand -31.7231 56.862
rfingers 7.12502
rthumb -4.98133 26.9406
lclavicle -3.85642e-014 6.36111e-015
lhumerus 47.9506 -11.5851 61.8535
lradius 114.259
lwrist 4.57748
lhand -30.7771 40.0357
lfingers 7.12502
lthumb -4.06789 69.9766
rfemur -35.04 -3.02521 18.7304
rtibia 31.5456
rfoot -10.858 -7.46409
rtoes -10.8446
lfemur -30.7517 -1.84455 -17.297
ltibia 32.1424
lfoot -20.8303 0.123159
ltoes 25.0848
425
root 3.47599 27.1615 0.721841 -179.507 84.6538 -196.618
lowerback 11.5232 -1.52883 -7.56835
upperback 7.48057 -2.29183 -0.629847
thorax 1.71928 -1.23677 3.81108
lowerneck -5.11016 1.28777 5.04602
upperneck -4.58126 1.79362 4.54446
head -0.566293 0.891361 0.579171
rclavicle -2.18663e-014 -9.54166e-015
rhumerus 37.7431 14.7242 -74.6343
rradius 119.432
rwrist -4.28676
rhand -31.7453 56.9549
rfingers 7.12502
rthumb -5.00282 27.0339
lclavicle -2.18663e-014 -9.54166e-015
lhumerus 48.4488 -11.4777 61.5936
lradius 114.644
lwrist 4.34737
lhand -30.8716 40.5298
lfingers 7.12502
lthumb -4.15917 70.469
rfemur -35.3705 -3.05286 18.6549
rtibia 31.7242
rfoot -10.9563 -7.27426
rtoes -10.38
lfemur -30.9268 -2.01963 -17.371
ltibia 32.1454
lfoot -20.8479 0.589005
ltoes 24.6494
426
root 3.50114 27.1638 0.739553 -181.082 84.198 -197.955
lowerback 11.6555 -1.61723 -8.07371
upperback 7.73818 -2.42857 -0.447217
thorax 1.98332 -1.3361 4.29538
lowerneck -5.04018 1.48278 4.59999
upperneck -4.76869 2.08191 4.36808
head -0.636348 1.03469 0.598817
rclavicle -2.78299e-014 7.15625e-015
rhumerus 37.9873 14.8093 -74.4287
rradius 119.63
rwrist -4.10305
rhand -31.7814 57.0504
rfingers 7.12502
rthumb -5.03762 27.1303
lclavicle -2.78299e-014 7.15625e-015
lhumerus 48.7951 -11.3974 61.7312
lradius 114.944
lwrist 4.08221
lhand -31.4831 40.5537
lfingers 7.12502
lthumb -4.74966 70.4804
rfemur -34.9819 -3.17306 18.4612
rtibia 31.8694
rfoot -11.0328 -7.64934
rtoes -9.94546
lfemur -30.6128 -1.72195 -17.6576
ltibia 32.1164
lfoot -20.857 -0.131163
ltoes 24.5982
427
root 3.51676 27.1647 0.751389 -180.338 84.0044 -197.155
lowerback 11.7871 -1.68275 -8.08387
upperback 7.82602 -2.51406 -0.389668
thorax 2.02206 -1.38113 4.37162
lowerneck -5.03987 1.36586 4.60029
upperneck -5.02262 1.95116 4.52124
head -0.716187 0.963643 0.643801
rclavicle -1.07344e-014 1.51076e-014
rhumerus 38.0744 14.7757 -74.4774
rradius 119.792
rwrist -4.24926
rhand -31.7941 56.9499
rfingers 7.12502
rthumb -5.04994 27.0301
lclavicle -1.07344e-014 1.51076e-014
lhumerus 49.1182 -11.3816 61.6943
lradius 115.238
lwrist 3.90859
lhand -31.9012 40.3311
lfingers 7.12502
lthumb -5.15334 70.2485
rfemur -34.8797 -3.21202 18.5555
rtibia 31.9926
rfoot -11.0977 -7.84466
rtoes -9.81296
lfemur -30.4981 -1.63288 -17.5941
ltibia 32.0736
lfoot -20.836 -0.410143
ltoes 24.7118
428
root 3.52641 27.1635 0.759853 -178.298 84.0017 -195.123
lowerback 11.8864 -1.74916 -7.88481
upperback 7.92968 -2.57859 -0.366259
thorax 2.07619 -1.40797 4.29176
lowerneck -5.13199 1.34513 4.63846
upperneck -5.22019 1.93856 4.63354
head -0.763316 0.95471 0.672265
rclavicle 1.86858e-014 -9.54166e-015
rhumerus 38.4232 14.7341 -74.5426
rradius 119.842
rwrist -4.36141
rhand -31.761 56.7694
rfingers 7.12502
rthumb -5.01796 26.8488
lclavicle 1.86858e-014 -9.54166e-015
lhumerus 49.4538 -11.2708 61.5289
lradius 115.522
lwrist 3.69773
lhand -31.5573 40.5124
lfingers 7.12502
lthumb -4.82126 70.4375
rfemur -34.8921 -3.13259 18.8149
rtibia 32.0854
rfoot -11.1236 -7.94851
rtoes -9.66575
lfemur -30.4696 -1.64352 -17.3183
ltibia 32.032
lfoot -20.8052 -0.378992
ltoes 24.6572
